<svg width="921" height="383" viewBox="0 0 921 383" fill="none" xmlns="http://www.w3.org/2000/svg">
<path d="M40.8709 87.4046L49.2755 90.1378L40.8709 92.8823L38.1378 101.287L35.4045 92.8823L27 90.1378L35.4045 87.4046L38.1378 79L40.8709 87.4046Z" fill="white" stroke="#3A3836" stroke-width="2" stroke-miterlimit="10"/>
<path d="M20.6914 115.865L26.5564 117.778L20.6914 119.703L18.7782 125.568L16.865 119.703L11 117.778L16.865 115.865L18.7782 110L20.6914 115.865Z" fill="#3A3836"/>
<path d="M903.691 81.865L909.556 83.7782L903.691 85.7028L901.778 91.5678L899.865 85.7028L894 83.7782L899.865 81.865L901.778 76L903.691 81.865Z" fill="#3A3836"/>
<path d="M604.691 121.865L610.556 123.778L604.691 125.703L602.778 131.568L600.865 125.703L595 123.778L600.865 121.865L602.778 116L604.691 121.865Z" fill="#3A3836"/>
<g filter="url(#filter0_d_95_6382)">
<path d="M486 281C537.915 281 580 238.915 580 187C580 135.085 537.915 93 486 93C434.085 93 392 135.085 392 187C392 238.915 434.085 281 486 281Z" fill="white"/>
<path d="M486 281C537.915 281 580 238.915 580 187C580 135.085 537.915 93 486 93C434.085 93 392 135.085 392 187C392 238.915 434.085 281 486 281Z" stroke="#3A3836" stroke-width="2.11" stroke-miterlimit="10"/>
</g>
<path d="M436.058 241.364C440.51 241.364 443.534 238.34 444.038 234.084L441.014 233.608C440.51 236.604 438.97 238.48 436.058 238.48C432.67 238.48 430.822 236.044 430.822 232.544C430.822 229.296 432.67 226.72 436.03 226.72C438.914 226.72 440.538 228.54 440.986 231.452L444.066 230.92C443.506 226.664 440.594 223.836 436.114 223.836C431.046 223.836 427.658 227.42 427.658 232.544C427.658 237.696 430.906 241.364 436.058 241.364ZM452.109 241.364C456.281 241.364 458.829 238.704 458.829 234.392C458.829 230.052 456.141 227.504 452.109 227.504C448.049 227.504 445.361 230.052 445.361 234.392C445.361 238.704 447.881 241.364 452.109 241.364ZM452.109 230.248C454.433 230.248 455.833 231.844 455.833 234.364C455.833 236.912 454.489 238.592 452.081 238.592C449.701 238.592 448.385 236.912 448.385 234.364C448.385 231.844 449.757 230.248 452.109 230.248ZM466.55 238.62C464.198 238.62 463.134 237.108 463.134 234.476C463.134 231.76 464.254 230.192 466.55 230.192C468.706 230.192 470.05 231.816 470.05 234.336V234.56C470.05 237.164 468.706 238.62 466.55 238.62ZM470.05 241H473.074V223.836H470.05V231.62H470.022C469.434 228.904 467.95 227.476 465.318 227.504C462.014 227.476 460.138 230.108 460.138 234.476C460.138 238.732 461.902 241.364 465.318 241.364C467.866 241.364 469.406 239.936 469.994 237.276H470.05V241ZM481.66 230.052C483.732 230.052 484.796 231.116 484.964 233.16H478.076C478.412 231.032 479.672 230.052 481.66 230.052ZM481.744 241.336C485.216 241.336 487.008 239.6 487.68 237.08L485.048 236.324C484.656 237.668 483.872 238.704 481.772 238.704C479.616 238.704 478.328 237.612 478.048 235.4H487.708C487.764 234.7 487.764 234.168 487.764 233.636C487.764 230.024 485.748 227.504 481.744 227.504C477.656 227.504 475.024 230.136 475.024 234.588C475.024 238.928 477.712 241.336 481.744 241.336ZM496.313 238.648C494.129 238.648 492.785 237.024 492.785 234.504V234.28C492.785 231.676 494.129 230.22 496.313 230.22C498.637 230.22 499.701 231.732 499.701 234.364C499.701 237.052 498.581 238.648 496.313 238.648ZM492.785 223.836H489.761V241H492.785V237.248H492.841C493.429 239.936 494.885 241.364 497.517 241.364C500.849 241.364 502.697 238.732 502.697 234.364C502.697 230.108 500.933 227.504 497.545 227.504C494.969 227.504 493.457 228.904 492.841 231.564H492.785V223.836ZM510.442 238.62C508.09 238.62 507.026 237.108 507.026 234.476C507.026 231.788 508.146 230.192 510.442 230.192C512.598 230.192 513.942 231.816 513.942 234.336V234.56C513.942 237.164 512.598 238.62 510.442 238.62ZM504.03 234.476C504.03 238.732 505.794 241.364 509.21 241.364C511.758 241.364 513.298 239.936 513.886 237.276H513.942V241H516.966V227.84H513.942V231.62H513.914C513.326 228.904 511.842 227.476 509.21 227.504C505.906 227.476 504.03 230.108 504.03 234.476ZM524.88 241.364C528.604 241.364 530.312 239.768 530.312 237.304C530.312 235.288 529.08 233.944 525.412 233.272C522.752 232.824 522.22 232.208 522.22 231.284C522.22 230.332 522.976 229.744 524.404 229.744C525.972 229.744 526.756 230.472 527.148 232.208L530.032 231.564C529.472 229.044 527.988 227.504 524.404 227.504C520.96 227.504 519.224 229.044 519.224 231.424C519.224 233.524 520.484 234.756 524.04 235.456C526.672 235.932 527.344 236.436 527.344 237.388C527.316 238.424 526.532 239.04 524.936 239.04C522.836 239.04 521.996 237.92 521.576 236.268L518.748 236.828C519.224 239.404 520.652 241.364 524.88 241.364ZM538.196 230.052C540.268 230.052 541.332 231.116 541.5 233.16H534.612C534.948 231.032 536.208 230.052 538.196 230.052ZM538.28 241.336C541.752 241.336 543.544 239.6 544.216 237.08L541.584 236.324C541.192 237.668 540.408 238.704 538.308 238.704C536.152 238.704 534.864 237.612 534.584 235.4H544.244C544.3 234.7 544.3 234.168 544.3 233.636C544.3 230.024 542.284 227.504 538.28 227.504C534.192 227.504 531.56 230.136 531.56 234.588C531.56 238.928 534.248 241.336 538.28 241.336Z" fill="#3A3836"/>
<path d="M450.2 161.65H460.1" stroke="#6B6B6B" stroke-width="2" stroke-linecap="round" stroke-linejoin="round"/>
<path d="M450.2 181.45H456.8" stroke="#6B6B6B" stroke-width="2" stroke-linecap="round" stroke-linejoin="round"/>
<path d="M450.2 171.55H453.5" stroke="#6B6B6B" stroke-width="2" stroke-linecap="round" stroke-linejoin="round"/>
<path d="M450.2 191.35H453.5" stroke="#6B6B6B" stroke-width="2" stroke-linecap="round" stroke-linejoin="round"/>
<path d="M450.2 201.25H460.1" stroke="#6B6B6B" stroke-width="2" stroke-linecap="round" stroke-linejoin="round"/>
<path d="M486.5 161.65H494.75" stroke="#6B6B6B" stroke-width="2" stroke-linecap="round" stroke-linejoin="round"/>
<path d="M493.1 171.55H506.3" stroke="#6B6B6B" stroke-width="2" stroke-linecap="round" stroke-linejoin="round"/>
<path d="M499.7 181.45H522.8" stroke="#6B6B6B" stroke-width="2" stroke-linecap="round" stroke-linejoin="round"/>
<path d="M493.1 191.35H506.3" stroke="#6B6B6B" stroke-width="2" stroke-linecap="round" stroke-linejoin="round"/>
<rect x="437" y="127" width="98" height="23" fill="url(#paint0_linear_95_6382)"/>
<path d="M486.5 201.25H494.75" stroke="#6B6B6B" stroke-width="2" stroke-linecap="round" stroke-linejoin="round"/>
<path d="M473.3 150.1V212.8" stroke="#6B6B6B" stroke-width="2" stroke-linecap="round" stroke-linejoin="round"/>
<path d="M450.2 138.55H456.8" stroke="#6B6B6B" stroke-width="2" stroke-linecap="round" stroke-linejoin="round"/>
<path d="M437 150.1H536" stroke="#6B6B6B" stroke-width="2" stroke-linecap="round" stroke-linejoin="round"/>
<path d="M536 127H437V212.8H536V127Z" stroke="#6B6B6B" stroke-width="2" stroke-linecap="round" stroke-linejoin="round"/>
<path d="M640.707 186.77C641.098 186.379 641.098 185.746 640.707 185.355L634.343 178.991C633.953 178.601 633.319 178.601 632.929 178.991C632.538 179.382 632.538 180.015 632.929 180.406L638.586 186.063L632.929 191.719C632.538 192.11 632.538 192.743 632.929 193.134C633.319 193.524 633.953 193.524 634.343 193.134L640.707 186.77ZM582 187.062L640 187.063L640 185.063L582 185.062L582 187.062Z" fill="#3A3836"/>
<path d="M877.079 108.532V113.605H619.844V109.235C619.844 105.288 623.027 101.384 626.956 101.384H869.967C870.904 101.386 871.831 101.573 872.695 101.934C873.559 102.295 874.344 102.822 875.005 103.486C875.665 104.15 876.188 104.937 876.544 105.803C876.9 106.669 877.082 107.596 877.079 108.532Z" fill="#3A3836"/>
<path d="M734.322 264.78H771.903L730.667 288.209L734.322 264.78Z" fill="#E7E7E7"/>
<path d="M778.368 294.872L771.882 264.78H734.321L727.836 294.872H726.505C724.887 294.881 723.339 295.532 722.201 296.681C721.063 297.83 720.428 299.383 720.435 301H786.135C786.142 299.383 785.507 297.83 784.369 296.681C783.231 295.532 781.683 294.881 780.065 294.872H778.368Z" fill="white" stroke="#3A3836" stroke-width="2" stroke-linecap="round" stroke-linejoin="round"/>
<path d="M876.804 113.605V258.146C876.764 259.984 875.995 261.731 874.667 263.004C873.339 264.276 871.56 264.971 869.72 264.935H627.597C625.757 264.969 623.98 264.274 622.652 263.002C621.324 261.729 620.555 259.983 620.513 258.146V113.605H876.804Z" fill="white" stroke="#3A3836" stroke-width="2" stroke-miterlimit="10"/>
<path d="M876.958 110.034V111.999H620.315V110.034C620.31 108.853 620.49 107.683 620.844 106.59C621.198 105.498 621.719 104.503 622.377 103.664C623.036 102.825 623.819 102.158 624.682 101.701C625.545 101.244 626.471 101.006 627.407 101H869.865C870.801 101.006 871.727 101.244 872.59 101.701C873.453 102.158 874.236 102.825 874.895 103.664C875.553 104.503 876.075 105.498 876.429 106.59C876.783 107.683 876.962 108.853 876.958 110.034V110.034Z" stroke="#3A3836" stroke-width="2" stroke-miterlimit="10"/>
<path d="M629.287 110.424C629.781 110.431 630.267 110.291 630.681 110.022C631.096 109.753 631.421 109.366 631.615 108.912C631.809 108.457 631.863 107.955 631.771 107.47C631.679 106.984 631.444 106.537 631.097 106.186C630.75 105.834 630.306 105.593 629.821 105.494C629.337 105.395 628.834 105.442 628.376 105.63C627.919 105.817 627.527 106.136 627.252 106.547C626.976 106.957 626.829 107.44 626.829 107.934C626.825 108.589 627.082 109.22 627.543 109.687C628.003 110.154 628.631 110.419 629.287 110.424Z" fill="white"/>
<path d="M636.934 110.424C637.428 110.43 637.913 110.289 638.326 110.018C638.74 109.748 639.064 109.361 639.257 108.907C639.45 108.452 639.503 107.95 639.41 107.465C639.317 106.98 639.082 106.534 638.735 106.183C638.387 105.832 637.943 105.592 637.459 105.493C636.974 105.395 636.472 105.443 636.015 105.63C635.558 105.818 635.167 106.137 634.891 106.547C634.616 106.957 634.469 107.44 634.469 107.934C634.467 108.59 634.726 109.22 635.187 109.687C635.649 110.154 636.277 110.419 636.934 110.424V110.424Z" fill="white"/>
<path d="M644.574 110.424C645.069 110.431 645.554 110.291 645.969 110.022C646.383 109.753 646.708 109.366 646.902 108.912C647.096 108.457 647.151 107.955 647.059 107.47C646.966 106.984 646.732 106.537 646.385 106.186C646.037 105.834 645.593 105.593 645.109 105.494C644.624 105.395 644.121 105.442 643.664 105.63C643.206 105.817 642.815 106.136 642.539 106.547C642.264 106.957 642.117 107.44 642.117 107.934C642.113 108.589 642.37 109.22 642.83 109.687C643.291 110.154 643.918 110.419 644.574 110.424Z" fill="white"/>
<path d="M621 301L880 301" stroke="#3A3836" stroke-width="2" stroke-linecap="round" stroke-linejoin="round"/>
<path d="M772.558 269.023L772.389 264.907L771.939 264.829H734.04L772.558 269.023Z" fill="#3A3836"/>
<path d="M868.77 252.412C868.77 252.679 868.77 253.052 868.77 253.207C868.819 253.031 868.777 252.447 868.77 252.412Z" fill="white"/>
<path d="M868.819 253.207C868.816 253.23 868.816 253.254 868.819 253.277C868.819 253.277 868.819 253.249 868.819 253.207Z" fill="white"/>
<path d="M868.685 252.665C868.685 252.918 868.685 253.27 868.685 253.432C868.699 253.214 868.692 252.7 868.685 252.665Z" fill="#E5E5E5"/>
<path d="M849.518 229.173C849.518 229.173 849.528 229.183 849.518 229.173V229.173Z" fill="#F3F3F3"/>
<path d="M850.159 233.436V233.486C850.159 233.486 850.159 233.486 850.159 233.542C850.155 233.507 850.155 233.472 850.159 233.436V233.436Z" fill="#F3F3F3"/>
<path d="M396 189L294 189" stroke="#3A3836" stroke-width="2"/>
<path d="M402.261 241.584C408.192 241.584 413 236.776 413 230.845C413 224.914 408.192 220.106 402.261 220.106C396.33 220.106 391.521 224.914 391.521 230.845C391.521 236.776 396.33 241.584 402.261 241.584Z" fill="white"/>
<path d="M402.26 238.293C406.374 238.293 409.708 234.958 409.708 230.845C409.708 226.731 406.374 223.397 402.26 223.397C398.147 223.397 394.812 226.731 394.812 230.845C394.812 234.958 398.147 238.293 402.26 238.293Z" fill="#3A3836"/>
<path d="M391.261 198.584C397.192 198.584 402 193.776 402 187.845C402 181.914 397.192 177.106 391.261 177.106C385.33 177.106 380.521 181.914 380.521 187.845C380.521 193.776 385.33 198.584 391.261 198.584Z" fill="white"/>
<path d="M391.26 195.293C395.374 195.293 398.708 191.958 398.708 187.845C398.708 183.731 395.374 180.397 391.26 180.397C387.147 180.397 383.812 183.731 383.812 187.845C383.812 191.958 387.147 195.293 391.26 195.293Z" fill="#3A3836"/>
<path d="M401.261 155.584C407.192 155.584 412 150.776 412 144.845C412 138.914 407.192 134.106 401.261 134.106C395.33 134.106 390.521 138.914 390.521 144.845C390.521 150.776 395.33 155.584 401.261 155.584Z" fill="white"/>
<path d="M401.26 152.293C405.374 152.293 408.708 148.958 408.708 144.845C408.708 140.731 405.374 137.397 401.26 137.397C397.147 137.397 393.812 140.731 393.812 144.845C393.812 148.958 397.147 152.293 401.26 152.293Z" fill="#3A3836"/>
<path d="M580.739 176.584C574.808 176.584 570 181.392 570 187.323C570 193.254 574.808 198.062 580.739 198.062C586.67 198.062 591.479 193.254 591.479 187.323C591.479 181.392 586.67 176.584 580.739 176.584Z" fill="white"/>
<path d="M580.74 179.875C576.626 179.875 573.292 183.21 573.292 187.323C573.292 191.437 576.626 194.771 580.74 194.771C584.853 194.771 588.188 191.437 588.188 187.323C588.188 183.21 584.853 179.875 580.74 179.875Z" fill="#3A3836"/>
<path d="M326 37H331C336.523 37 341 41.4772 341 47V55" stroke="#3A3836" stroke-width="2"/>
<path d="M176 55H345C350.523 55 355 59.4772 355 65V92" stroke="#3A3836" stroke-width="2"/>
<path d="M165 321H344.272C347.82 321 351.103 319.12 352.898 316.06L402.5 231.5" stroke="#3A3836" stroke-width="2"/>
<path d="M264 287H331C336.523 287 341 291.477 341 297V321" stroke="#3A3836" stroke-width="2"/>
<path d="M315 348H321C326.523 348 331 343.523 331 338V321" stroke="#3A3836" stroke-width="2"/>
<path d="M184 172H359C364.523 172 369 176.477 369 182V189" stroke="#3A3836" stroke-width="2"/>
<path d="M98 228H301C306.523 228 311 223.523 311 218V189" stroke="#3A3836" stroke-width="2"/>
<path d="M270 92H355.093C358.188 92 361.109 93.4332 363.002 95.8813L401 145" stroke="#3A3836" stroke-width="2"/>
<path d="M227.09 135.18C250.888 135.18 270.18 115.888 270.18 92.0901C270.18 68.2921 250.888 49 227.09 49C203.292 49 184 68.2921 184 92.0901C184 115.888 203.292 135.18 227.09 135.18Z" fill="white" stroke="#3A3836" stroke-width="2" stroke-miterlimit="10"/>
<path d="M140.09 215.18C163.888 215.18 183.18 195.888 183.18 172.09C183.18 148.292 163.888 129 140.09 129C116.292 129 97 148.292 97 172.09C97 195.888 116.292 215.18 140.09 215.18Z" fill="white" stroke="#3A3836" stroke-width="2" stroke-miterlimit="10"/>
<path d="M122.09 364.18C145.888 364.18 165.18 344.888 165.18 321.09C165.18 297.292 145.888 278 122.09 278C98.2921 278 79 297.292 79 321.09C79 344.888 98.2921 364.18 122.09 364.18Z" fill="white" stroke="#3A3836" stroke-width="2" stroke-miterlimit="10"/>
<path d="M127.5 104C154.286 104 176 82.2858 176 55.5C176 28.7142 154.286 7 127.5 7C100.714 7 79 28.7142 79 55.5C79 82.2858 100.714 104 127.5 104Z" fill="white" stroke="#3A3836" stroke-width="2" stroke-miterlimit="10"/>
<path d="M49.5 276C76.2858 276 98 254.286 98 227.5C98 200.714 76.2858 179 49.5 179C22.7142 179 1 200.714 1 227.5C1 254.286 22.7142 276 49.5 276Z" fill="white" stroke="#3A3836" stroke-width="2" stroke-miterlimit="10"/>
<path d="M215.5 335C242.286 335 264 313.286 264 286.5C264 259.714 242.286 238 215.5 238C188.714 238 167 259.714 167 286.5C167 313.286 188.714 335 215.5 335Z" fill="white" stroke="#3A3836" stroke-width="2" stroke-miterlimit="10"/>
<path d="M291 71C310.33 71 326 55.33 326 36C326 16.67 310.33 1 291 1C271.67 1 256 16.67 256 36C256 55.33 271.67 71 291 71Z" fill="white" stroke="#3A3836" stroke-width="2" stroke-miterlimit="10"/>
<path d="M259 224C278.33 224 294 208.33 294 189C294 169.67 278.33 154 259 154C239.67 154 224 169.67 224 189C224 208.33 239.67 224 259 224Z" fill="white" stroke="#3A3836" stroke-width="2" stroke-miterlimit="10"/>
<path d="M281 382C300.33 382 316 366.33 316 347C316 327.67 300.33 312 281 312C261.67 312 246 327.67 246 347C246 366.33 261.67 382 281 382Z" fill="white" stroke="#3A3836" stroke-width="2" stroke-miterlimit="10"/>
<g clip-path="url(#clip0_95_6382)">
<path d="M215 280.1L211.6 277C212.1 275.3 212.1 273.5 211.7 271.7C211.2 270 210.3 268.4 209 267.2C207.7 266 206.1 265.1 204.3 264.7C202.5 264.3 200.7 264.5 199 265L204.5 270.5L198.5 276.5L193 271C192.4 272.7 192.3 274.5 192.7 276.3C193.1 278.1 193.9 279.7 195.2 281C196.4 282.3 198 283.2 199.7 283.7C201.4 284.2 203.3 284.1 205 283.6L207.8 286.7" fill="url(#paint1_linear_95_6382)"/>
<path d="M215 280.1L211.6 277C212.1 275.3 212.1 273.5 211.7 271.7C211.2 270 210.3 268.4 209 267.2C207.7 266 206.1 265.1 204.3 264.7C202.5 264.3 200.7 264.5 199 265L204.5 270.5L198.5 276.5L193 271C192.4 272.7 192.3 274.5 192.7 276.3C193.1 278.1 193.9 279.7 195.2 281C196.4 282.3 198 283.2 199.7 283.7C201.4 284.2 203.3 284.1 205 283.6L207.8 286.7" stroke="#6B6B6B" stroke-width="1.5" stroke-linecap="round" stroke-linejoin="round"/>
<path d="M219 298.9L227.8 308.5C228.1 308.8 228.4 309 228.8 309.2C229.2 309.4 229.6 309.5 230 309.5C230.4 309.5 230.8 309.4 231.2 309.3C231.6 309.1 231.9 308.9 232.2 308.6L236.8 304C237.1 303.7 237.3 303.4 237.5 303C237.7 302.6 237.7 302.2 237.7 301.8C237.7 301.4 237.6 301 237.4 300.6C237.2 300.2 237 299.9 236.7 299.6L226.6 290.4" fill="url(#paint2_linear_95_6382)"/>
<path d="M219 298.9L227.8 308.5C228.1 308.8 228.4 309 228.8 309.2C229.2 309.4 229.6 309.5 230 309.5C230.4 309.5 230.8 309.4 231.2 309.3C231.6 309.1 231.9 308.9 232.2 308.6L236.8 304C237.1 303.7 237.3 303.4 237.5 303C237.7 302.6 237.7 302.2 237.7 301.8C237.7 301.4 237.6 301 237.4 300.6C237.2 300.2 237 299.9 236.7 299.6L226.6 290.4" stroke="#6B6B6B" stroke-width="1.5" stroke-linecap="round" stroke-linejoin="round"/>
<path d="M237 271L231.5 276.5L225.5 270.5L231 265C229.3 264.4 227.5 264.3 225.7 264.7C223.9 265.1 222.3 265.9 221 267.2C219.7 268.4 218.8 270 218.3 271.7C217.8 273.4 217.9 275.3 218.4 277L193.5 299.7C193.2 300 193 300.3 192.8 300.7C192.6 301.1 192.5 301.5 192.5 301.9C192.5 302.3 192.6 302.7 192.7 303.1C192.9 303.5 193.1 303.8 193.4 304.1L198 308.7C198.3 309 198.6 309.2 199 309.4C199.4 309.6 199.8 309.6 200.2 309.6C200.6 309.6 201 309.5 201.4 309.3C201.8 309.1 202.1 308.9 202.4 308.6L225 283.6C226.7 284.1 228.5 284.1 230.3 283.7C232 283.2 233.6 282.3 234.8 281C236 279.7 236.9 278.1 237.3 276.3C237.7 274.6 237.5 272.7 237 271Z" stroke="#6B6B6B" stroke-width="1.5" stroke-linecap="round" stroke-linejoin="round"/>
</g>
<path d="M227.5 115C239.929 115 250 104.929 250 92.5C250 80.0714 239.929 70 227.5 70C215.071 70 205 80.0714 205 92.5C205 104.929 215.071 115 227.5 115Z" stroke="#6B6B6B" stroke-width="1.5" stroke-linecap="round" stroke-linejoin="round"/>
<path d="M227.5 106.429C235.214 106.429 241.428 100.214 241.428 92.5C241.428 84.7857 235.214 78.5714 227.5 78.5714C219.786 78.5714 213.571 84.7857 213.571 92.5C213.571 100.214 219.786 106.429 227.5 106.429Z" fill="url(#paint3_linear_95_6382)" stroke="#6B6B6B" stroke-width="1.5" stroke-linecap="round" stroke-linejoin="round"/>
<path d="M226.857 102.143H228.143V100.429C231.464 100.214 233.393 98.3929 233.393 95.9286C233.393 93.1429 230.821 92.0714 228.786 91.5357L228.143 91.4286V86.6071C229.643 86.7143 230.714 87.5714 230.821 88.8571H233.178C233.071 86.5 231.143 84.7857 228.143 84.5714V82.8571H226.857V84.5714C224.071 84.7857 222.036 86.5 222.036 88.9643C222.036 91.1071 223.643 92.3929 226.107 93.0357L226.857 93.25V98.3929C225.25 98.2857 224.071 97.4286 223.964 95.9286H221.607C221.714 98.6071 223.75 100.214 226.857 100.429V102.143V102.143ZM228.143 98.3929V93.5714C229.75 94 231.036 94.5357 231.036 95.9286C231.036 97.3214 229.857 98.1786 228.143 98.3929ZM226.857 91.1071C225.678 90.7857 224.393 90.1429 224.393 88.8571C224.393 87.6786 225.357 86.8214 226.857 86.6071V91.1071Z" fill="white"/>
<path d="M298.38 35.7242H282.862V46.5862H298.38V35.7242Z" fill="url(#paint4_linear_95_6382)" stroke="#6B6B6B" stroke-width="1.5" stroke-linecap="round" stroke-linejoin="round"/>
<path d="M285.965 35.7241V31.069C285.965 29.8276 286.483 28.6896 287.31 27.7586C288.138 26.931 289.379 26.4138 290.621 26.4138C291.862 26.4138 293 26.931 293.931 27.7586C294.758 28.5862 295.276 29.8276 295.276 31.069V35.7241" stroke="#6B6B6B" stroke-width="1.5" stroke-linecap="round" stroke-linejoin="round"/>
<path d="M309.241 40.3793C309.241 45.3448 307.276 50.1034 303.759 53.5172C300.241 57.0345 295.483 59 290.621 59C285.759 59 280.897 57.0345 277.483 53.5172C273.966 50.1034 272 45.3448 272 40.3793V18.6552L290.621 14L309.241 18.6552V40.3793Z" stroke="#6B6B6B" stroke-width="1.5" stroke-linecap="round" stroke-linejoin="round"/>
<g clip-path="url(#clip1_95_6382)">
<path d="M123.25 69.5H106.5C105.395 69.5 104.5 68.6046 104.5 67.5V38.5C104.5 37.3954 105.395 36.5 106.5 36.5H147.5C148.605 36.5 149.5 37.3954 149.5 38.5V51.5" stroke="#6B6B6B" stroke-width="1.5"/>
<path d="M109 59H115.75" stroke="#6B6B6B" stroke-width="1.5"/>
<path d="M128.5 58.25V63.1591C128.5 65.4184 132.865 67.25 138.25 67.25C143.635 67.25 148 65.4184 148 63.1591V58.25" stroke="#6B6B6B" stroke-width="1.5"/>
<path d="M128.5 63.5V68.4091C128.5 70.6684 132.865 72.5 138.25 72.5C143.635 72.5 148 70.6684 148 68.4091V63.5" stroke="#6B6B6B" stroke-width="1.5"/>
<path d="M128.5 68.75V73.6591C128.5 75.9184 132.865 77.75 138.25 77.75C143.635 77.75 148 75.9184 148 73.6591V68.75" stroke="#6B6B6B" stroke-width="1.5"/>
<ellipse cx="138.25" cy="58.25" rx="9.75" ry="3.75" fill="url(#paint5_linear_95_6382)" stroke="#6B6B6B" stroke-width="1.5" stroke-linecap="round" stroke-linejoin="round"/>
<path d="M104.125 41.75H149.875V49.25H104.125V41.75Z" fill="url(#paint6_linear_95_6382)" stroke="#6B6B6B" stroke-width="1.5" stroke-linecap="round" stroke-linejoin="round"/>
</g>
<g clip-path="url(#clip2_95_6382)">
<path d="M295.551 349.573C295.327 349.573 295.114 349.584 294.902 349.606C292.829 343.668 286.33 340.53 280.391 342.603C277.108 343.746 274.531 346.323 273.388 349.606C273.175 349.584 272.951 349.573 272.738 349.573C268.536 349.573 265.129 352.979 265.129 357.181C265.129 361.383 268.536 364.789 272.738 364.789H295.551C299.753 364.789 303.16 361.383 303.16 357.181C303.16 352.979 299.753 349.573 295.551 349.573Z" fill="url(#paint7_linear_95_6382)" stroke="#6B6B6B" stroke-width="1.5" stroke-linecap="round" stroke-linejoin="round"/>
<path d="M295.551 349.573C295.327 349.573 295.114 349.584 294.902 349.606C292.829 343.668 286.33 340.53 280.391 342.603C277.108 343.746 274.531 346.323 273.388 349.606C273.175 349.584 272.951 349.573 272.738 349.573C268.536 349.573 265.129 352.979 265.129 357.181C265.129 361.383 268.536 364.789 272.738 364.789H295.551C299.753 364.789 303.16 361.383 303.16 357.181C303.16 352.979 299.753 349.573 295.551 349.573Z" stroke="#6B6B6B" stroke-width="1.5" stroke-linecap="round" stroke-linejoin="round"/>
<path d="M297.871 345.057C297.871 340.855 294.464 337.449 290.262 337.449C290.038 337.449 289.825 337.46 289.612 337.482C287.54 331.544 281.041 328.406 275.102 330.479C271.819 331.622 269.241 334.199 268.099 337.482C267.886 337.46 267.662 337.449 267.449 337.449C263.247 337.449 259.84 340.855 259.84 345.057C259.84 347.152 260.692 349.057 262.07 350.436" stroke="#6B6B6B" stroke-width="1.5" stroke-linecap="round" stroke-linejoin="round"/>
</g>
<g clip-path="url(#clip3_95_6382)">
<path d="M139.967 161.89H124.802L120.758 165.934L124.802 169.978H139.967" fill="url(#paint8_linear_95_6382)"/>
<path d="M139.967 161.89H124.802L120.758 165.934L124.802 169.978H139.967" stroke="#6B6B6B" stroke-width="1.5" stroke-linecap="round" stroke-linejoin="round"/>
<path d="M139.967 161.89H124.802L120.758 165.934L124.802 169.978H139.967" stroke="#6B6B6B" stroke-width="1.5" stroke-linecap="round" stroke-linejoin="round"/>
<path d="M145.022 153.802H155.132L159.176 157.846L155.132 161.89H145.022" stroke="#6B6B6B" stroke-width="1.5" stroke-linecap="round" stroke-linejoin="round"/>
<path d="M145.022 169.978H155.132L159.176 174.022L155.132 178.066H145.022" stroke="#6B6B6B" stroke-width="1.5" stroke-linecap="round" stroke-linejoin="round"/>
<path d="M146.033 194.242H133.901" stroke="#6B6B6B" stroke-width="1.5" stroke-linecap="round" stroke-linejoin="round"/>
<path d="M139.967 194.242V149.758" stroke="#6B6B6B" stroke-width="1.5" stroke-linecap="round" stroke-linejoin="round"/>
</g>
<g clip-path="url(#clip4_95_6382)">
<path d="M135.357 315.966L130.753 315.391C130.451 314.273 130.004 313.186 129.431 312.183L132.284 308.505C132.368 308.39 132.409 308.255 132.409 308.108C132.409 307.962 132.336 307.837 132.243 307.732L128.952 304.43C128.848 304.326 128.723 304.274 128.577 304.263C128.431 304.263 128.296 304.294 128.181 304.389L124.515 307.252C123.515 306.677 122.443 306.228 121.318 305.925L120.745 301.296C120.724 301.149 120.662 301.024 120.558 300.93C120.454 300.836 120.318 300.784 120.172 300.784H115.517C115.371 300.784 115.236 300.836 115.132 300.93C115.028 301.024 114.955 301.149 114.944 301.296L114.372 305.925C113.257 306.228 112.174 306.677 111.175 307.252L107.509 304.389C107.394 304.305 107.259 304.253 107.113 304.263C106.967 304.274 106.842 304.336 106.738 304.43L103.447 307.732C103.343 307.837 103.291 307.962 103.28 308.108C103.28 308.255 103.312 308.39 103.405 308.505L106.259 312.183C105.686 313.186 105.238 314.263 104.936 315.391L100.323 315.966C100.177 315.987 100.052 316.049 99.9583 316.154C99.8646 316.258 99.8125 316.394 99.8125 316.541V321.211C99.8125 321.357 99.8646 321.493 99.9583 321.598C100.052 321.702 100.177 321.775 100.323 321.786L104.936 322.361C105.238 323.479 105.686 324.565 106.259 325.568L103.405 329.246C103.322 329.361 103.27 329.497 103.28 329.643C103.28 329.79 103.353 329.915 103.447 330.02L106.738 333.321C106.842 333.426 106.967 333.478 107.113 333.489C107.259 333.489 107.394 333.457 107.509 333.363L111.175 330.5C112.174 331.085 113.247 331.524 114.372 331.827L114.944 336.446C114.965 336.581 115.028 336.717 115.132 336.811C115.236 336.905 115.371 336.958 115.517 336.958H120.172C120.318 336.958 120.454 336.905 120.558 336.811C120.662 336.717 120.735 336.592 120.745 336.446L121.318 331.827C122.432 331.524 123.515 331.075 124.515 330.5L128.181 333.363C128.296 333.447 128.431 333.499 128.577 333.489C128.723 333.489 128.848 333.415 128.952 333.321L132.243 330.02C132.347 329.915 132.399 329.79 132.409 329.643C132.409 329.497 132.378 329.361 132.284 329.246L129.431 325.568C130.014 324.565 130.451 323.479 130.753 322.361L135.357 321.786C135.492 321.765 135.627 321.702 135.721 321.598C135.815 321.493 135.867 321.357 135.867 321.211V316.541C135.867 316.394 135.815 316.258 135.721 316.154C135.627 316.049 135.502 315.976 135.357 315.966V315.966ZM117.829 325.307C116.559 325.307 115.33 324.931 114.268 324.22C113.216 323.51 112.393 322.507 111.914 321.337C111.435 320.166 111.299 318.871 111.549 317.627C111.799 316.384 112.403 315.234 113.299 314.336C114.195 313.437 115.34 312.821 116.58 312.58C117.819 312.33 119.11 312.455 120.277 312.946C121.443 313.437 122.443 314.252 123.151 315.308C123.859 316.363 124.234 317.606 124.234 318.881C124.234 320.584 123.557 322.214 122.359 323.426C121.162 324.628 119.527 325.307 117.829 325.307V325.307Z" stroke="#6B6B6B" stroke-width="1.5" stroke-linecap="round" stroke-linejoin="round"/>
<path d="M144.219 328.703L129.858 343.206L118.725 333.551L123.723 328.504L129.076 333.551L138.814 323.458L144.208 328.703H144.219Z" fill="url(#paint9_linear_95_6382)"/>
<path d="M144.219 328.703L129.858 343.206L118.725 333.551L123.723 328.504L129.076 333.551L138.814 323.458L144.208 328.703H144.219Z" stroke="#6B6B6B" stroke-width="1.5" stroke-linecap="round" stroke-linejoin="round"/>
</g>
<path d="M269.364 166C264.816 166 259.955 169.377 259.955 175.2C259.955 181.682 269.364 190.045 269.364 190.045C269.364 190.045 278.773 181.682 278.773 175.2C278.773 169.377 273.911 166 269.364 166ZM269.364 178.545C267.628 178.545 266.227 177.145 266.227 175.409C266.227 173.674 267.628 172.273 269.364 172.273C271.099 172.273 272.5 173.674 272.5 175.409C272.5 177.145 271.099 178.545 269.364 178.545Z" fill="url(#paint10_linear_95_6382)"/>
<path d="M246.928 208.226C248.246 207.254 249.26 204.776 249.26 204.776C249.26 204.776 250.399 203.981 250.755 202.978C251.11 201.964 250.776 200.594 250.776 200.594C250.776 200.594 251.79 197.625 251.309 196.799C250.828 195.973 248.81 195.43 248.81 195.43C248.81 195.43 247.974 193.882 246.259 193.59C245.13 193.475 244.001 192.701 244.001 191.091C244.001 189.481 245.601 186.878 245.601 186.878C245.601 186.878 247.263 186.062 247.503 185.466C247.744 184.87 247.827 183.49 247.827 183.49C247.827 183.49 249.406 180.699 248.517 179.089C248.235 178.577 246.918 178.2 246.918 178.2L245.067 175.43" stroke="#6B6B6B" stroke-width="1.5" stroke-linecap="round" stroke-linejoin="round"/>
<path d="M275.406 203.929C273.388 202.967 269.855 202.152 269.855 202.152C269.855 202.152 267.273 199.277 265.579 199.517C263.885 199.758 262.16 201.65 262.16 201.65C262.16 201.65 262.275 205.152 261.742 205.33C261.209 205.508 259.777 204.556 258.888 205.267C257.999 205.978 258.512 207.986 258.512 207.986C258.512 207.986 256.567 208.592 256.337 209.24C256.107 209.888 257.038 211.352 257.226 211.906" stroke="#6B6B6B" stroke-width="1.5" stroke-linecap="round" stroke-linejoin="round"/>
<path d="M261.324 170.328C260.53 170.234 259.735 170.182 258.909 170.182C247.357 170.182 238 179.539 238 191.091C238 202.643 247.357 212 258.909 212C270.461 212 279.818 202.643 279.818 191.091C279.818 189.68 279.682 188.289 279.41 186.961" stroke="#6B6B6B" stroke-width="1.5" stroke-linecap="round" stroke-linejoin="round"/>
<path d="M269.363 178.545C271.099 178.545 272.5 177.145 272.5 175.409C272.5 173.674 271.099 172.273 269.363 172.273C267.628 172.273 266.227 173.674 266.227 175.409C266.227 177.145 267.628 178.545 269.363 178.545Z" stroke="#6B6B6B" stroke-width="1.5" stroke-linecap="round" stroke-linejoin="round"/>
<path d="M278.773 175.2C278.773 181.682 269.364 190.045 269.364 190.045C269.364 190.045 259.955 181.682 259.955 175.2C259.955 169.377 264.816 166 269.364 166C273.911 166 278.773 169.377 278.773 175.2Z" stroke="#6B6B6B" stroke-width="1.5" stroke-linecap="round" stroke-linejoin="round"/>
<path d="M70.1217 228.902L66.9952 225.002H31.0048L27.8783 228.902C27.3137 229.613 27 230.491 27 231.401V241H70.9895V231.401C70.9895 230.491 70.6758 229.613 70.1112 228.902H70.1217ZM35.0095 235.991C33.3574 235.991 32.0086 234.653 32.0086 232.99C32.0086 231.328 33.347 229.99 35.0095 229.99C36.6721 229.99 38.0105 231.328 38.0105 232.99C38.0105 234.653 36.6721 235.991 35.0095 235.991ZM63.0009 235.991C61.3488 235.991 60 234.653 60 232.99C60 231.328 61.3384 229.99 63.0009 229.99C64.6635 229.99 66.0019 231.328 66.0019 232.99C66.0019 234.653 64.6635 235.991 63.0009 235.991Z" fill="url(#paint11_linear_95_6382)" stroke="#6B6B6B" stroke-width="1.5" stroke-linecap="round" stroke-linejoin="round"/>
<path d="M66.9954 224.991L65.406 211.534C65.291 210.562 64.8205 209.663 64.0885 209.014C63.3566 208.366 62.4155 208 61.4326 208H36.5676C35.5847 208 34.6437 208.356 33.9117 209.014C33.1798 209.663 32.7093 210.562 32.5942 211.534L31.0049 224.991" stroke="#6B6B6B" stroke-width="1.5" stroke-linecap="round" stroke-linejoin="round"/>
<path d="M38.0103 244.984C38.0103 246.636 36.6719 247.985 35.0093 247.985H33.0122C31.3601 247.985 30.0112 246.646 30.0112 244.984" stroke="#6B6B6B" stroke-width="1.5" stroke-linecap="round" stroke-linejoin="round"/>
<path d="M67.999 244.984C67.999 246.636 66.6606 247.985 64.9981 247.985H63.0009C61.3489 247.985 60 246.646 60 244.984" stroke="#6B6B6B" stroke-width="1.5" stroke-linecap="round" stroke-linejoin="round"/>
<path d="M70.9893 240.99H27.0103V231.391C27.0103 230.481 27.3135 229.603 27.8886 228.892L31.015 224.991H66.995L70.1215 228.892C70.6861 229.603 70.9998 230.481 70.9998 231.391V240.99H70.9893Z" stroke="#6B6B6B" stroke-width="1.5" stroke-linecap="round" stroke-linejoin="round"/>
<path d="M63.0009 235.991C64.653 235.991 66.0019 234.653 66.0019 232.991C66.0019 231.328 64.6635 229.99 63.0009 229.99C61.3384 229.99 60 231.328 60 232.991C60 234.653 61.3384 235.991 63.0009 235.991Z" stroke="#6B6B6B" stroke-width="1.5" stroke-linecap="round" stroke-linejoin="round"/>
<path d="M35.0097 235.991C36.6618 235.991 38.0107 234.653 38.0107 232.991C38.0107 231.328 36.6723 229.99 35.0097 229.99C33.3472 229.99 32.0088 231.328 32.0088 232.991C32.0088 234.653 33.3472 235.991 35.0097 235.991V235.991Z" stroke="#6B6B6B" stroke-width="1.5" stroke-linecap="round" stroke-linejoin="round"/>
<path d="M45.0059 232.99H53.0049" stroke="#6B6B6B" stroke-width="1.5" stroke-linecap="round" stroke-linejoin="round"/>
<path d="M831 212L828 238H806L803 212" stroke="#6B6B6B" stroke-width="2" stroke-linecap="round" stroke-linejoin="round"/>
<path d="M833 194H824L822 206" stroke="#6B6B6B" stroke-width="2" stroke-linecap="round" stroke-linejoin="round"/>
<path d="M835 206H799V212H835V206Z" stroke="#6B6B6B" stroke-width="2" stroke-linecap="round" stroke-linejoin="round"/>
<path d="M672 146L674 148" stroke="#6B6B6B" stroke-width="2" stroke-linecap="round" stroke-linejoin="round"/>
<path d="M689 145L691 147" stroke="#6B6B6B" stroke-width="2" stroke-linecap="round" stroke-linejoin="round"/>
<path d="M680 146L682 144" stroke="#6B6B6B" stroke-width="2" stroke-linecap="round" stroke-linejoin="round"/>
<path d="M663 168.9V171C663 174.314 665.686 177 669 177H693C696.314 177 699 174.314 699 171V168.9" stroke="#6B6B6B" stroke-width="2" stroke-linecap="round" stroke-linejoin="round"/>
<path d="M663 153C663 145.268 669.268 139 677 139H685C692.732 139 699 145.268 699 153" stroke="#6B6B6B" stroke-width="2" stroke-linecap="round" stroke-linejoin="round"/>
<path d="M700 159H693L687 165L681 159H662C660.343 159 659 157.657 659 156C659 154.343 660.343 153 662 153H700C701.657 153 703 154.343 703 156C703 157.657 701.657 159 700 159Z" stroke="#6B6B6B" stroke-width="2" stroke-linecap="round" stroke-linejoin="round"/>
<path d="M664 159C661.239 159 659 161.239 659 164C659 166.761 661.239 169 664 169H698C700.761 169 703 166.761 703 164C703 161.239 700.761 159 698 159" stroke="#6B6B6B" stroke-width="2" stroke-linecap="round" stroke-linejoin="round"/>
<path d="M749 174C752.314 174 755 171.314 755 168C755 164.686 752.314 162 749 162C745.686 162 743 164.686 743 168C743 171.314 745.686 174 749 174Z" stroke="#6B6B6B" stroke-width="2" stroke-linecap="round" stroke-linejoin="round"/>
<path d="M737 152V140H743" stroke="#6B6B6B" stroke-width="2" stroke-linecap="round" stroke-linejoin="round"/>
<path d="M755 154.528V138H761V152" stroke="#6B6B6B" stroke-width="2" stroke-linecap="round" stroke-linejoin="round"/>
<path d="M749 144H755" stroke="#6B6B6B" stroke-width="2" stroke-linecap="round" stroke-linejoin="round"/>
<path d="M743 154.528V136H749V156" stroke="#6B6B6B" stroke-width="2" stroke-linecap="round" stroke-linejoin="round"/>
<path d="M758.367 152C756.002 154.461 752.683 156 749 156C745.317 156 741.998 154.461 739.633 152H732L736 180H762L766 152H758.367Z" stroke="#6B6B6B" stroke-width="2" stroke-linecap="round" stroke-linejoin="round"/>
<path d="M826.89 139.69C823.751 137.236 819.203 137.454 816.314 140.343L799.343 157.314C796.455 160.202 796.237 164.749 798.688 167.888" stroke="#6B6B6B" stroke-width="2" stroke-linecap="round" stroke-linejoin="round"/>
<path d="M835.31 148.11C837.764 151.249 837.546 155.797 834.657 158.686L817.686 175.657C814.798 178.545 810.251 178.763 807.112 176.312" stroke="#6B6B6B" stroke-width="2" stroke-linecap="round" stroke-linejoin="round"/>
<path d="M835.255 148.17L807.17 176.255C804.843 178.582 801.071 178.582 798.745 176.255C796.418 173.928 796.418 170.156 798.745 167.83L826.83 139.745C829.157 137.418 832.929 137.418 835.255 139.745C837.582 142.072 837.582 145.844 835.255 148.17Z" stroke="#6B6B6B" stroke-width="2" stroke-linecap="round" stroke-linejoin="round"/>
<path d="M830 146L826.962 147.013C825.193 147.602 824 149.258 824 151.122C824 153.329 822.34 155.184 820.146 155.428L818.444 155.617C816.43 155.841 814.84 157.43 814.617 159.444L814.428 161.146C814.184 163.34 812.33 165 810.122 165C808.257 165 806.602 166.193 806.012 167.962L805 171" stroke="#6B6B6B" stroke-width="2" stroke-linecap="round" stroke-linejoin="round"/>
<path d="M667.089 207.236L659 204" stroke="#6B6B6B" stroke-width="2" stroke-linecap="round" stroke-linejoin="round"/>
<path d="M671.386 204.386L661 194" stroke="#6B6B6B" stroke-width="2" stroke-linecap="round" stroke-linejoin="round"/>
<path d="M661.05 218C661.301 223.122 663.513 227.951 667.226 231.487C670.94 235.023 675.872 236.995 681 236.995C686.128 236.995 691.059 235.023 694.773 231.487C698.487 227.951 700.699 223.122 700.95 218H661.05Z" stroke="#6B6B6B" stroke-width="2" stroke-linecap="round" stroke-linejoin="round"/>
<path d="M665 213C665 210.613 665.948 208.324 667.636 206.636C669.324 204.948 671.613 204 674 204C676.387 204 678.676 204.948 680.364 206.636C682.052 208.324 683 210.613 683 213" stroke="#6B6B6B" stroke-width="2" stroke-linecap="round" stroke-linejoin="round"/>
<path d="M697.828 213C697.942 212.339 698 211.67 698 211C698.001 208.434 697.179 205.936 695.656 203.872C694.132 201.808 691.987 200.286 689.536 199.53C687.084 198.774 684.455 198.824 682.033 199.672C679.612 200.52 677.526 202.122 676.082 204.242" stroke="#6B6B6B" stroke-width="2" stroke-linecap="round" stroke-linejoin="round"/>
<path d="M681.125 207.5C681.915 206.397 683.056 205.595 684.361 205.224C685.666 204.853 687.059 204.935 688.311 205.458C689.563 205.98 690.601 206.911 691.256 208.099C691.911 209.287 692.144 210.662 691.917 212" stroke="#6B6B6B" stroke-width="2" stroke-linecap="round" stroke-linejoin="round"/>
<path d="M739.642 215.383C740.347 215.764 741.142 216 742 216C744.761 216 747 213.761 747 211C747 209.016 745.835 207.316 744.159 206.509" stroke="#6B6B6B" stroke-width="2" stroke-linecap="round" stroke-linejoin="round"/>
<path d="M752 224C753.657 224 755 222.657 755 221C755 219.343 753.657 218 752 218C750.343 218 749 219.343 749 221C749 222.657 750.343 224 752 224Z" stroke="#6B6B6B" stroke-width="2" stroke-linecap="round" stroke-linejoin="round"/>
<path d="M764.198 226.854C759.656 228.772 754.24 230 749 230C743.76 230 738.376 228.71 733.834 226.792" stroke="#6B6B6B" stroke-width="2" stroke-linecap="round" stroke-linejoin="round"/>
<path d="M730.674 233C736.255 235.561 742.458 237 749 237C755.542 237 761.745 235.561 767.326 233L749 197L730.674 233Z" stroke="#6B6B6B" stroke-width="2" stroke-linecap="round" stroke-linejoin="round"/>
<path d="M920.469 277.185L920.469 153.905C920.469 152.542 919.896 151.234 918.877 150.27C917.857 149.306 916.475 148.764 915.033 148.764L825.811 148.764C825.624 148.764 825.439 148.797 825.266 148.864C825.093 148.931 824.936 149.029 824.803 149.153C824.67 149.278 824.565 149.425 824.492 149.588C824.42 149.751 824.382 149.926 824.381 150.102L824.381 280.987C824.383 281.345 824.535 281.687 824.803 281.939C825.071 282.191 825.433 282.332 825.811 282.332L915.063 282.332C916.5 282.325 917.877 281.779 918.89 280.814C919.903 279.85 920.471 278.545 920.469 277.185Z" fill="#3A3836"/>
<path d="M820.881 274.544L820.881 150.321C820.881 147.886 822.969 145.913 825.543 145.913L912.397 145.913C914.971 145.913 917.058 147.886 917.058 150.321L917.058 274.544C917.058 276.979 914.971 278.952 912.397 278.952L825.543 278.952C822.969 278.952 820.881 276.979 820.881 274.544Z" fill="white" stroke="#3A3836" stroke-width="2" stroke-miterlimit="10"/>
<path d="M872.228 188.146H836.747C833.801 188.146 831.413 190.534 831.413 193.481V212.518C831.413 215.464 833.801 217.853 836.747 217.853H872.228C875.174 217.853 877.563 215.464 877.563 212.518V193.481C877.563 190.534 875.174 188.146 872.228 188.146Z" fill="#FFDE83"/>
<path d="M872.228 188.146H836.747C833.801 188.146 831.413 190.534 831.413 193.481V212.518C831.413 215.464 833.801 217.853 836.747 217.853H872.228C875.174 217.853 877.563 215.464 877.563 212.518V193.481C877.563 190.534 875.174 188.146 872.228 188.146Z" stroke="#6B6B6B" stroke-width="2" stroke-linecap="round" stroke-linejoin="round"/>
<path d="M872.228 199.658H836.628V203.737H872.228V199.658Z" fill="white"/>
<path d="M836.628 211.904H844.263" stroke="#6B6B6B" stroke-width="2" stroke-linecap="round" stroke-linejoin="round"/>
<path d="M864.419 213.361C865.583 213.361 866.527 212.417 866.527 211.253C866.527 210.089 865.583 209.145 864.419 209.145C863.254 209.145 862.311 210.089 862.311 211.253C862.311 212.417 863.254 213.361 864.419 213.361Z" fill="white"/>
<path d="M868.58 213.361C869.745 213.361 870.688 212.417 870.688 211.253C870.688 210.089 869.745 209.145 868.58 209.145C867.416 209.145 866.472 210.089 866.472 211.253C866.472 212.417 867.416 213.361 868.58 213.361Z" fill="white"/>
<path d="M836.628 193.481H855.455" stroke="#6B6B6B" stroke-width="2" stroke-linecap="round" stroke-linejoin="round"/>
<path d="M834.674 163.328H905.014C905.521 163.328 906.023 163.436 906.491 163.646C906.959 163.856 907.385 164.164 907.743 164.552C908.101 164.94 908.386 165.401 908.58 165.908C908.773 166.415 908.873 166.958 908.873 167.507C908.871 168.614 908.463 169.675 907.74 170.457C907.016 171.239 906.036 171.678 905.014 171.678H834.674C833.653 171.678 832.673 171.238 831.951 170.456C831.229 169.674 830.823 168.613 830.823 167.507V167.507C830.823 166.4 831.229 165.339 831.951 164.555C832.673 163.772 833.652 163.33 834.674 163.328V163.328Z" fill="#3A3836"/>
<path d="M832.981 161.495H903.321C904.345 161.495 905.326 161.935 906.05 162.719C906.774 163.503 907.18 164.566 907.18 165.674C907.178 166.781 906.771 167.842 906.047 168.624C905.324 169.406 904.343 169.845 903.321 169.845H832.981C831.96 169.845 830.98 169.405 830.258 168.623C829.536 167.841 829.13 166.78 829.13 165.674C829.13 164.567 829.536 163.506 830.258 162.722C830.98 161.938 831.959 161.497 832.981 161.495V161.495Z" fill="#D1DAFA" stroke="#3A3836" stroke-width="1.8" stroke-linecap="round" stroke-linejoin="round"/>
<path d="M832.797 236.437H872.072" stroke="#6B6B6B" stroke-width="2" stroke-linecap="round" stroke-linejoin="round"/>
<path d="M832.797 248.437H872.072" stroke="#6B6B6B" stroke-width="2" stroke-linecap="round" stroke-linejoin="round"/>
<path d="M832.797 260.437H872.072" stroke="#6B6B6B" stroke-width="2" stroke-linecap="round" stroke-linejoin="round"/>
<path d="M911.671 352.033C911.643 352.047 911.618 352.065 911.598 352.088C911.578 352.111 911.562 352.138 911.552 352.166C911.542 352.195 911.538 352.226 911.54 352.256C911.542 352.287 911.55 352.316 911.564 352.344C911.624 352.464 911.648 352.599 911.633 352.733C911.618 352.866 911.563 352.992 911.477 353.096C911.44 353.144 911.423 353.204 911.429 353.263C911.436 353.323 911.466 353.378 911.512 353.417C911.559 353.455 911.619 353.474 911.679 353.469C911.74 353.464 911.796 353.436 911.836 353.391C911.98 353.218 912.071 353.008 912.096 352.785C912.122 352.562 912.082 352.337 911.981 352.137C911.954 352.082 911.905 352.041 911.847 352.022C911.789 352.002 911.726 352.006 911.671 352.033V352.033Z" fill="#BCBCBC"/>
<path d="M902.71 342.165C891.675 340.76 881.581 348.5 880.166 359.457C878.751 370.413 886.545 380.43 897.58 381.835C908.615 383.241 918.71 375.501 920.124 364.547C921.538 353.594 913.744 343.571 902.71 342.165ZM906.857 354.64C906.484 354.645 906.127 354.795 905.863 355.058L898.388 362.476L896.794 360.893C904.158 353.601 905.486 353.531 906.857 354.64ZM898.692 362.741L906.145 355.341C906.34 355.148 906.605 355.039 906.88 355.039C907.156 355.039 907.42 355.148 907.615 355.341C907.715 355.44 907.794 355.56 907.846 355.691C907.898 355.822 907.923 355.962 907.918 356.103C907.914 356.244 907.88 356.383 907.819 356.51C907.759 356.638 907.672 356.752 907.566 356.845L899.678 363.722L898.692 362.741ZM899.246 363.896L897.4 364.292C897.378 364.296 897.355 364.294 897.335 364.285C897.315 364.275 897.298 364.26 897.287 364.24C897.276 364.221 897.272 364.198 897.276 364.176C897.279 364.154 897.289 364.134 897.305 364.118L898.387 363.043L899.246 363.896ZM894.54 363.132L896.508 361.178L897.983 362.642L894.66 363.352C894.633 363.358 894.604 363.355 894.578 363.343C894.552 363.331 894.531 363.311 894.517 363.287C894.504 363.262 894.499 363.233 894.503 363.206C894.507 363.178 894.52 363.152 894.54 363.132ZM888.421 373.231C888.397 373.229 888.374 373.219 888.355 373.204C888.336 373.189 888.322 373.169 888.314 373.146C888.306 373.124 888.305 373.099 888.311 373.076C888.316 373.053 888.328 373.031 888.345 373.015L889.933 371.438L891.984 373.474L888.421 373.231ZM892.492 371.135C892.416 371.174 892.356 371.237 892.32 371.314C892.284 371.391 892.275 371.477 892.295 371.559L892.635 373.003C892.644 373.047 892.638 373.092 892.619 373.133C892.6 373.174 892.569 373.207 892.529 373.229C892.49 373.251 892.445 373.26 892.4 373.254C892.355 373.249 892.313 373.229 892.28 373.199L890.22 371.153L896.533 364.886L899.589 364.234L901.055 365.69C898.947 367.522 896.066 369.354 892.492 371.134V371.135ZM901.351 365.423L899.943 364.025L907.831 357.147C907.905 357.083 907.971 357.012 908.03 356.935C907.781 359.18 904.623 362.345 901.353 365.421L901.351 365.423ZM907.489 354.653C906.936 354.099 906.619 353.355 906.603 352.576C906.588 351.796 906.875 351.04 907.406 350.465C907.936 349.89 908.67 349.539 909.454 349.486C910.238 349.433 911.012 349.681 911.616 350.18L908.909 352.868C908.89 352.887 908.875 352.909 908.865 352.933C908.855 352.957 908.85 352.983 908.85 353.009C908.85 353.036 908.855 353.062 908.865 353.086C908.875 353.11 908.89 353.132 908.909 353.15L911.002 355.229C910.43 355.509 909.784 355.604 909.154 355.501C908.525 355.397 907.944 355.1 907.493 354.652L907.489 354.653ZM911.816 354.653C911.677 354.79 911.526 354.914 911.363 355.021L909.335 353.008L911.909 350.453C912.441 351.03 912.728 351.789 912.711 352.571C912.693 353.353 912.372 354.099 911.815 354.652L911.816 354.653Z" fill="#BCBCBC"/>
<defs>
<filter id="filter0_d_95_6382" x="382.945" y="87.945" width="206.11" height="206.11" filterUnits="userSpaceOnUse" color-interpolation-filters="sRGB">
<feFlood flood-opacity="0" result="BackgroundImageFix"/>
<feColorMatrix in="SourceAlpha" type="matrix" values="0 0 0 0 0 0 0 0 0 0 0 0 0 0 0 0 0 0 127 0" result="hardAlpha"/>
<feOffset dy="4"/>
<feGaussianBlur stdDeviation="4"/>
<feComposite in2="hardAlpha" operator="out"/>
<feColorMatrix type="matrix" values="0 0 0 0 0 0 0 0 0 0 0 0 0 0 0 0 0 0 0.25 0"/>
<feBlend mode="normal" in2="BackgroundImageFix" result="effect1_dropShadow_95_6382"/>
<feBlend mode="normal" in="SourceGraphic" in2="effect1_dropShadow_95_6382" result="shape"/>
</filter>
<linearGradient id="paint0_linear_95_6382" x1="486" y1="127" x2="486" y2="150" gradientUnits="userSpaceOnUse">
<stop stop-color="#FF6C37"/>
<stop offset="1" stop-color="#FFB400"/>
</linearGradient>
<linearGradient id="paint1_linear_95_6382" x1="203.73" y1="264.487" x2="203.73" y2="286.7" gradientUnits="userSpaceOnUse">
<stop stop-color="#FF6C37"/>
<stop offset="1" stop-color="#FFB400"/>
</linearGradient>
<linearGradient id="paint2_linear_95_6382" x1="228.35" y1="290.4" x2="228.35" y2="309.5" gradientUnits="userSpaceOnUse">
<stop stop-color="#FF6C37"/>
<stop offset="1" stop-color="#FFB400"/>
</linearGradient>
<linearGradient id="paint3_linear_95_6382" x1="227.5" y1="78.5714" x2="227.5" y2="106.429" gradientUnits="userSpaceOnUse">
<stop stop-color="#FF6C37"/>
<stop offset="1" stop-color="#FFB400"/>
</linearGradient>
<linearGradient id="paint4_linear_95_6382" x1="290.621" y1="35.7242" x2="290.621" y2="46.5862" gradientUnits="userSpaceOnUse">
<stop stop-color="#FF6C37"/>
<stop offset="1" stop-color="#FFB400"/>
</linearGradient>
<linearGradient id="paint5_linear_95_6382" x1="138.25" y1="54.5" x2="138.25" y2="62" gradientUnits="userSpaceOnUse">
<stop stop-color="#FF6C37"/>
<stop offset="1" stop-color="#FFB400"/>
</linearGradient>
<linearGradient id="paint6_linear_95_6382" x1="127" y1="41" x2="127" y2="50" gradientUnits="userSpaceOnUse">
<stop stop-color="#FF6C37"/>
<stop offset="1" stop-color="#FFB400"/>
</linearGradient>
<linearGradient id="paint7_linear_95_6382" x1="284.145" y1="341.964" x2="284.145" y2="364.789" gradientUnits="userSpaceOnUse">
<stop stop-color="#FF6C37"/>
<stop offset="1" stop-color="#FFB400"/>
</linearGradient>
<linearGradient id="paint8_linear_95_6382" x1="130.363" y1="161.89" x2="130.363" y2="169.978" gradientUnits="userSpaceOnUse">
<stop stop-color="#FF6C37"/>
<stop offset="1" stop-color="#FFB400"/>
</linearGradient>
<linearGradient id="paint9_linear_95_6382" x1="131.472" y1="323.458" x2="131.472" y2="343.206" gradientUnits="userSpaceOnUse">
<stop stop-color="#FF6C37"/>
<stop offset="1" stop-color="#FFB400"/>
</linearGradient>
<linearGradient id="paint10_linear_95_6382" x1="269.364" y1="166" x2="269.364" y2="190.045" gradientUnits="userSpaceOnUse">
<stop stop-color="#FF6C37"/>
<stop offset="1" stop-color="#FFB400"/>
</linearGradient>
<linearGradient id="paint11_linear_95_6382" x1="48.9948" y1="225.002" x2="48.9948" y2="241" gradientUnits="userSpaceOnUse">
<stop stop-color="#FF6C37"/>
<stop offset="1" stop-color="#FFB400"/>
</linearGradient>
<clipPath id="clip0_95_6382">
<rect width="48" height="48" fill="white" transform="translate(191 263)"/>
</clipPath>
<clipPath id="clip1_95_6382">
<rect width="48" height="48" fill="white" transform="translate(103 32)"/>
</clipPath>
<clipPath id="clip2_95_6382">
<rect width="45" height="36.6185" fill="white" transform="translate(259 329)"/>
</clipPath>
<clipPath id="clip3_95_6382">
<rect width="39.9341" height="46" fill="white" transform="translate(120 149)"/>
</clipPath>
<clipPath id="clip4_95_6382">
<rect width="46" height="44" fill="white" transform="translate(99 300)"/>
</clipPath>
</defs>
</svg>
