<svg version="1.2" xmlns="http://www.w3.org/2000/svg" viewBox="0 0 560 405" width="560" height="405">
	<title>IMG-3</title>
	<defs>
		<linearGradient id="g1" x2="1" gradientUnits="userSpaceOnUse" gradientTransform="matrix(68.08,0,0,58.96,178,105.48)">
			<stop offset="0" stop-color="#ff6d37"/>
			<stop offset=".31" stop-color="#fa9139"/>
			<stop offset=".64" stop-color="#f7ac3b"/>
			<stop offset=".87" stop-color="#fac53c"/>
		</linearGradient>
		<linearGradient id="g2" x2="1" gradientUnits="userSpaceOnUse" gradientTransform="matrix(35.858,0,0,30.431,284.733,105.114)">
			<stop offset="0" stop-color="#ff6c37"/>
			<stop offset="1" stop-color="#ffb400"/>
		</linearGradient>
	</defs>
	<style>
		.s0 { fill: #ffffff } 
		.s1 { fill: none;stroke: #3a3836;stroke-miterlimit:10;stroke-width: 2 } 
		.s2 { fill: #e6e6e6 } 
		.s3 { fill: #d9d9d9 } 
		.s4 { fill: #ffde83 } 
		.s5 { fill: url(#g1) } 
		.s6 { fill: none;stroke: #3a3836;stroke-width: 2 } 
		.s7 { fill: none;stroke: #3a3836;stroke-linecap: round;stroke-linejoin: round;stroke-width: 2 } 
		.s8 { fill: #ffffff;stroke: #3a3836;stroke-linecap: round;stroke-linejoin: round;stroke-width: 2 } 
		.s9 { fill: #fb8553;stroke: #3a3836;stroke-miterlimit:10;stroke-width: 2 } 
		.s10 { fill: url(#g2) } 
		.s11 { fill: #3a3836 } 
		.s12 { fill: #d1dafa } 
		.s13 { fill: #a4eec4;stroke: #3a3836;stroke-width: 2 } 
		.s14 { fill: #f79a8e;stroke: #3a3836;stroke-width: 2 } 
	</style>
	<path class="s0" d="m461.2 121v204.7h-214.8v-264.3h214.8v37.2"/>
	<path class="s1" d="m461.2 121v204.7h-214.8v-264.3h214.8v37.2"/>
	<path class="s2" d="m330.4 99.5h138.1c5.9 0 10.6 4.7 10.6 10.6 0 5.8-4.7 10.6-10.6 10.6h-138.1"/>
	<path class="s1" d="m330.4 99.5h138.1c5.9 0 10.6 4.7 10.6 10.6 0 5.8-4.7 10.6-10.6 10.6h-138.1"/>
	<path class="s3" d="m71 383.5c0-6.4 5.1-11.5 11.5-11.5h152c6.4 0 11.5 5.1 11.5 11.5 0 6.4-5.1 11.5-11.5 11.5h-152c-6.4 0-11.5-5.1-11.5-11.5z"/>
	<path class="s4" d="m183.5 153.7h-10.1c-4.1 0-7.3-3.3-7.3-7.3v-82c0-4.1 3.2-7.3 7.3-7.3h79.9c4.1 0 7.3 3.2 7.3 7.3v82c0 4-3.2 7.3-7.3 7.3h-39.5"/>
	<path class="s1" d="m183.5 153.7h-10.1c-4.1 0-7.3-3.3-7.3-7.3v-82c0-4.1 3.2-7.3 7.3-7.3h79.9c4.1 0 7.3 3.2 7.3 7.3v82c0 4-3.2 7.3-7.3 7.3h-39.5"/>
	<path class="s5" d="m229.1 76h-34.1l-17 29.5 17 29.5h34.1l17-29.5z"/>
	<path class="s6" d="m179.2 105.5l16.4-28.5h32.9l16.4 28.5-16.4 28.5h-32.9z"/>
	<path class="s0" d="m71.6 294.2v80c0 11.2 9.3 20.3 20.7 20.3 11.4 0 20.7-9.1 20.7-20.3l4-55.6c0.1-2.2 2-3.9 4.2-3.9 2.3 0 4.2 1.7 4.3 4l8.8 54.6c2.7 15.7 9.7 20.5 21.8 20.6 12.3 0.1 19.7-8.4 19.7-22.2l-7.8-135.3c34-23.9 44.7-46 49.2-65.8 4.6-19.8-16.8-25.2-16.8-25.2 1.2-27.3-10.3-21.1-10.3-21.1-10.2 71.9-39.6 64.1-39.6 64.1"/>
	<path class="s7" d="m71.6 294.2v80c0 11.2 9.3 20.3 20.7 20.3 11.4 0 20.7-9.1 20.7-20.3l4-55.6c0.1-2.2 2-3.9 4.2-3.9 2.3 0 4.2 1.7 4.3 4l8.8 54.6c2.7 15.7 9.7 20.5 21.8 20.6 12.3 0.1 19.7-8.4 19.7-22.2l-7.8-135.3c34-23.9 44.7-46 49.2-65.8 4.6-19.8-16.8-25.2-16.8-25.2 1.2-27.3-10.3-21.1-10.3-21.1-10.2 71.9-39.6 64.1-39.6 64.1"/>
	<path class="s0" d="m150 217l-21 3.5-7.5-13.8-7.5-13.7v-4h36z"/>
	<path class="s0" d="m73.3 198l-2.3-1.9c-11.3-9.7-18.4-24-18.4-39.9 0-29.4 24.3-53.2 54.3-53.2 30 0 54.3 23.8 54.3 53.2 0 21.3-12.7 39.6-31.1 48.1l-1.2 0.6"/>
	<path class="s7" d="m73.3 198l-2.3-1.9c-11.3-9.7-18.4-24-18.4-39.9 0-29.4 24.3-53.2 54.3-53.2 30 0 54.3 23.8 54.3 53.2 0 21.3-12.7 39.6-31.1 48.1l-1.2 0.6"/>
	<path class="s0" d="m158.2 172.6c-17.4-2.1-29.9-16.5-29.9-34 0-10.3 2.8-18.1 10.1-24.4"/>
	<path class="s7" d="m158.2 172.6c-17.4-2.1-29.9-16.5-29.9-34 0-10.3 2.8-18.1 10.1-24.4"/>
	<path class="s8" d="m114.5 198.7h-53.8c-9.8 0-17.7 7.9-17.7 17.6v58.9c0 9.8 7.9 17.7 17.7 17.7h53.8c9.8 0 17.7-7.9 17.7-17.7v-58.9c0-9.7-7.9-17.6-17.7-17.6z"/>
	<path class="s7" d="m56.2 292.9c0 0 1 17.8 15 18.7"/>
	<path class="s7" d="m167.9 240.2c0 0-10.1 24.3-35.7 18.7"/>
	<path class="s7" d="m168.6 257.5c0 0-10.3 19.1-35.9 13.4"/>
	<path class="s7" d="m105.9 199.3v19.3c0 7.7-6.3 14-14.1 14h-48.5"/>
	<path class="s9" d="m83.3 252.3c2.8 0 5-2.2 5-4.9 0-2.8-2.2-5-5-5-2.7 0-5 2.2-5 5 0 2.7 2.3 4.9 5 4.9z"/>
	<path class="s9" d="m68.2 252.3c2.8 0 5-2.2 5-4.9 0-2.8-2.2-5-5-5-2.7 0-4.9 2.2-4.9 5 0 2.7 2.2 4.9 4.9 4.9z"/>
	<path class="s7" d="m43.1 242.6h10.5c2.2 0 4 2.3 4 5.1 0 2.9-1.8 5.2-4 5.2h-10.5"/>
	<path class="s7" d="m43.1 262.2h61.2c2.2 0 3.9 2.3 3.9 5.2 0 2.8-1.7 5.1-3.9 5.1h-61.2"/>
	<path class="s7" d="m96.1 173.8c4.5 0 8.1-3.6 8.1-8.1 0-4.5-3.6-8.1-8.1-8.1-4.5 0-8.1 3.6-8.1 8.1 0 4.5 3.6 8.1 8.1 8.1z"/>
	<path class="s7" d="m80.2 101.6l2.9 6.4"/>
	<path class="s9" d="m80.1 101.1c3.8-1.5 5.7-5.9 4.1-9.8-1.6-3.9-6-5.8-9.9-4.2-3.8 1.6-5.7 6-4.1 9.9 1.6 3.8 6 5.7 9.9 4.1z"/>
	<path class="s10" d="m320.4 117.9l-16.3-27.2c-0.7-1.1-2.2-1.1-2.8 0l-16.3 27.2c-0.7 1.1 0.1 2.4 1.3 2.4h32.7c1.2 0 2-1.3 1.3-2.4z"/>
	<path class="s1" d="m320.4 117.9l-16.3-27.2c-0.7-1.1-2.2-1.1-2.8 0l-16.3 27.2c-0.7 1.1 0.1 2.4 1.3 2.4h32.7c1.2 0 2-1.3 1.3-2.4z"/>
	<path class="s0" d="m303.6 98.8l-0.4 9.9c0 0.7-1 0.7-1 0l-0.4-9.9c-0.1-1.2 1.8-1.2 1.8 0z"/>
	<path class="s0" d="m302.7 115.3c0.9 0 1.7-0.8 1.7-1.8 0-1-0.8-1.7-1.7-1.7-1 0-1.8 0.7-1.8 1.7 0 1 0.8 1.8 1.8 1.8z"/>
	<path class="s1" d="m303.2 138.2c16 0 29-13 29-29 0-15.9-13-28.9-29-28.9-16.1 0-29.1 13-29.1 28.9 0 16 13 29 29.1 29z"/>
	<path class="s11" d="m323.6 88.9c4.1 5 6.6 11.3 6.6 18.3 0 16-13 28.9-29.1 28.9-7 0-13.4-2.4-18.4-6.5 5.4 6.5 13.5 10.6 22.5 10.6 16.1 0 29.1-12.9 29.1-28.9 0-9-4.2-17.1-10.7-22.4z"/>
	<path class="s1" d="m341.4 109.6h18.8"/>
	<path class="s1" d="m405 109.6h6.6"/>
	<path class="s1" d="m365.8 109.6h31.7"/>
	<path class="s1" d="m419.6 109.6h36.6"/>
	<path class="s1" d="m350.7 15.9l6.8 2.2-6.8 2.2-2.2 6.8-2.3-6.8-6.8-2.2 6.8-2.2 2.3-6.8z"/>
	<path class="s1" d="m510.2 138l6.8 2.2-6.8 2.3-2.3 6.7-2.2-6.7-6.8-2.3 6.8-2.2 2.3-6.8z"/>
	<path class="s1" d="m110.3 54.8l6.8 2.2-6.8 2.2-2.3 6.8-2.2-6.8-6.8-2.2 6.8-2.2 2.3-6.8z"/>
	<path class="s12" d="m473.6 45.6c7.8 5.1 18.2 3 23.3-4.8 5.1-7.7 3-18.1-4.7-23.2-7.8-5.1-18.2-2.9-23.3 4.8-5.1 7.8-3 18.2 4.7 23.2z"/>
	<path class="s7" d="m498.9 39.1c4.6 4 7.1 7.3 6.2 8.6-1.4 2.2-12.3-2.4-24.3-10.3-12-7.9-20.6-16.1-19.1-18.3 0.7-1.1 3.8-0.5 8.2 1.4"/>
	<path fill-rule="evenodd" class="s2" d="m272 171h158c4.4 0 8 3.6 8 8v115c0 4.4-3.6 8-8 8h-158c-4.4 0-8-3.6-8-8v-115c0-4.4 3.6-8 8-8z"/>
	<path fill-rule="evenodd" class="s0" d="m280 205h31v83h-31z"/>
	<path fill-rule="evenodd" class="s0" d="m318 225h31v63h-31z"/>
	<path fill-rule="evenodd" class="s0" d="m357 237h31v51h-31z"/>
	<path fill-rule="evenodd" class="s0" d="m396 221h31v67h-31z"/>
	<path fill-rule="evenodd" class="s13" d="m266.5 276c-3.6 0-6.5-2.9-6.5-6.5 0-3.6 2.9-6.5 6.5-6.5 3.6 0 6.5 2.9 6.5 6.5 0 3.6-2.9 6.5-6.5 6.5z"/>
	<path fill-rule="evenodd" class="s13" d="m295.5 227c-3.6 0-6.5-2.9-6.5-6.5 0-3.6 2.9-6.5 6.5-6.5 3.6 0 6.5 2.9 6.5 6.5 0 3.6-2.9 6.5-6.5 6.5z"/>
	<path fill-rule="evenodd" class="s13" d="m334.5 254c-3.6 0-6.5-2.9-6.5-6.5 0-3.6 2.9-6.5 6.5-6.5 3.6 0 6.5 2.9 6.5 6.5 0 3.6-2.9 6.5-6.5 6.5z"/>
	<path fill-rule="evenodd" class="s14" d="m372.5 256c-3.6 0-6.5-2.9-6.5-6.5 0-3.6 2.9-6.5 6.5-6.5 3.6 0 6.5 2.9 6.5 6.5 0 3.6-2.9 6.5-6.5 6.5z"/>
	<path fill-rule="evenodd" class="s13" d="m412.5 239c-3.6 0-6.5-2.9-6.5-6.5 0-3.6 2.9-6.5 6.5-6.5 3.6 0 6.5 2.9 6.5 6.5 0 3.6-2.9 6.5-6.5 6.5z"/>
	<path fill-rule="evenodd" class="s13" d="m441.5 279c-3.6 0-6.5-2.9-6.5-6.5 0-3.6 2.9-6.5 6.5-6.5 3.6 0 6.5 2.9 6.5 6.5 0 3.6-2.9 6.5-6.5 6.5z"/>
	<path class="s6" d="m269.5 263l20.5-38m10.5-1l27.5 21.5"/>
	<path class="s6" d="m340.5 250.5h25.5"/>
	<path class="s6" d="m379 248l28-12"/>
	<path class="s6" d="m417.5 237l20 30"/>
</svg>